<?xml version="1.0" encoding="UTF-8"?>
<!DOCTYPE svg PUBLIC "-//W3C//DTD SVG 1.1//EN" "http://www.w3.org/Graphics/SVG/1.1/DTD/svg11.dtd">
<svg xmlns="http://www.w3.org/2000/svg" version="1.1" width="2000px" height="625px" style="shape-rendering:geometricPrecision; text-rendering:geometricPrecision; image-rendering:optimizeQuality; fill-rule:evenodd; clip-rule:evenodd" xmlns:xlink="http://www.w3.org/1999/xlink">
<g><path style="opacity:0.984" fill="#006da5" d="M 510.5,59.5 C 512.337,59.6395 512.67,60.3061 511.5,61.5C 432.833,133.167 354.167,204.833 275.5,276.5C 274.667,297.826 274.167,319.159 274,340.5C 246.195,369.305 218.028,397.805 189.5,426C 149.829,426.833 110.162,426.667 70.5,425.5C 45.8145,374.505 38.9812,321.171 50,265.5C 69.1455,186.016 115.312,128.182 188.5,92C 249.442,65.0184 311.442,62.3517 374.5,84C 384.163,87.941 393.829,91.7743 403.5,95.5C 403.5,96.5 403.5,97.5 403.5,98.5C 400.984,98.7553 398.65,99.5886 396.5,101C 363.825,120.339 330.825,139.173 297.5,157.5C 227.721,157.298 177.221,188.298 146,250.5C 129.551,290.319 128.218,330.652 142,371.5C 162.667,350.833 183.333,330.167 204,309.5C 204.172,284.594 204.672,259.761 205.5,235C 307.335,176.636 409.002,118.136 510.5,59.5 Z"/></g>
<g><path style="opacity:0.922" fill="#006da5" d="M 622.5,148.5 C 623.5,148.5 624.5,148.5 625.5,148.5C 639.839,182.67 654.672,216.67 670,250.5C 672.496,255.837 676.662,258.504 682.5,258.5C 682.5,259.833 682.5,261.167 682.5,262.5C 664.167,262.5 645.833,262.5 627.5,262.5C 627.5,261.167 627.5,259.833 627.5,258.5C 631.273,258.737 634.94,258.237 638.5,257C 639.894,256.044 640.561,254.711 640.5,253C 638.367,245.565 635.533,238.398 632,231.5C 619.229,230.179 606.396,230.179 593.5,231.5C 592.274,234.952 590.774,238.285 589,241.5C 584.117,253.786 588.284,259.453 601.5,258.5C 601.5,259.833 601.5,261.167 601.5,262.5C 588.833,262.5 576.167,262.5 563.5,262.5C 563.5,261.167 563.5,259.833 563.5,258.5C 569.399,257.632 573.899,254.632 577,249.5C 592.658,216.013 607.825,182.347 622.5,148.5 Z M 612.5,187.5 C 618.058,198.957 623.391,210.624 628.5,222.5C 618.167,223.833 607.833,223.833 597.5,222.5C 602.794,210.917 607.794,199.251 612.5,187.5 Z"/></g>
<g><path style="opacity:0.923" fill="#006da5" d="M 742.5,148.5 C 743.675,148.281 744.675,148.614 745.5,149.5C 760.392,183.618 775.559,217.618 791,251.5C 793.476,255.991 797.309,258.324 802.5,258.5C 802.5,259.833 802.5,261.167 802.5,262.5C 784.167,262.5 765.833,262.5 747.5,262.5C 747.5,261.167 747.5,259.833 747.5,258.5C 751.605,258.766 755.605,258.266 759.5,257C 760.602,254.599 760.769,252.099 760,249.5C 751.7,228.903 742.866,208.57 733.5,188.5C 724.516,207.616 716.016,226.949 708,246.5C 706.817,250.274 707.651,253.441 710.5,256C 714.346,257.536 718.346,258.369 722.5,258.5C 722.5,259.833 722.5,261.167 722.5,262.5C 709.833,262.5 697.167,262.5 684.5,262.5C 684.238,261.022 684.571,259.689 685.5,258.5C 690.992,256.844 695.158,253.51 698,248.5C 713.12,215.263 727.953,181.93 742.5,148.5 Z"/></g>
<g><path style="opacity:0.923" fill="#006da5" d="M 863.5,148.5 C 864.5,148.5 865.5,148.5 866.5,148.5C 880.824,183.486 895.99,218.152 912,252.5C 914.424,256.432 917.924,258.432 922.5,258.5C 922.5,259.833 922.5,261.167 922.5,262.5C 904.5,262.5 886.5,262.5 868.5,262.5C 868.5,261.167 868.5,259.833 868.5,258.5C 872.273,258.737 875.94,258.237 879.5,257C 880.894,256.044 881.561,254.711 881.5,253C 879.062,245.688 876.229,238.522 873,231.5C 860.229,230.179 847.396,230.179 834.5,231.5C 831.466,237.401 829.133,243.568 827.5,250C 827.735,253.399 829.402,255.732 832.5,257C 835.793,257.826 839.126,258.326 842.5,258.5C 842.5,259.833 842.5,261.167 842.5,262.5C 829.833,262.5 817.167,262.5 804.5,262.5C 804.5,261.167 804.5,259.833 804.5,258.5C 811.445,257.611 816.279,253.945 819,247.5C 833.848,214.474 848.681,181.474 863.5,148.5 Z M 853.5,187.5 C 858.911,199.207 864.245,211.04 869.5,223C 858.833,223.667 848.167,223.667 837.5,223C 843.506,211.487 848.839,199.654 853.5,187.5 Z"/></g>
<g><path style="opacity:0.923" fill="#006da5" d="M 1071.5,148.5 C 1074.05,148.561 1075.55,149.894 1076,152.5C 1090.61,186.334 1105.61,220 1121,253.5C 1123.8,256.653 1127.3,258.319 1131.5,258.5C 1131.5,259.833 1131.5,261.167 1131.5,262.5C 1113.17,262.5 1094.83,262.5 1076.5,262.5C 1076.5,261.167 1076.5,259.833 1076.5,258.5C 1080.27,258.737 1083.94,258.237 1087.5,257C 1088.66,255.991 1089.32,254.658 1089.5,253C 1087.44,246.033 1084.94,239.2 1082,232.5C 1075.74,231.188 1069.24,230.522 1062.5,230.5C 1056.17,230.667 1049.83,230.833 1043.5,231C 1038.82,237.834 1036.66,245.334 1037,253.5C 1037.5,255.333 1038.67,256.5 1040.5,257C 1043.79,257.826 1047.13,258.326 1050.5,258.5C 1050.5,259.833 1050.5,261.167 1050.5,262.5C 1038.17,262.5 1025.83,262.5 1013.5,262.5C 1013.24,261.022 1013.57,259.689 1014.5,258.5C 1018.91,257.543 1022.41,255.21 1025,251.5C 1041.06,217.382 1056.56,183.049 1071.5,148.5 Z M 1061.5,187.5 C 1067.2,198.896 1072.53,210.563 1077.5,222.5C 1067.18,223.666 1056.85,223.832 1046.5,223C 1052.2,211.438 1057.2,199.605 1061.5,187.5 Z"/></g>
<g><path style="opacity:0.922" fill="#006da5" d="M 1505.5,148.5 C 1508.05,148.561 1509.55,149.894 1510,152.5C 1524.61,186.334 1539.61,220 1555,253.5C 1557.8,256.653 1561.3,258.319 1565.5,258.5C 1565.5,259.833 1565.5,261.167 1565.5,262.5C 1547.17,262.5 1528.83,262.5 1510.5,262.5C 1510.5,261.167 1510.5,259.833 1510.5,258.5C 1514.27,258.737 1517.94,258.237 1521.5,257C 1522.66,255.991 1523.32,254.658 1523.5,253C 1521.44,246.033 1518.94,239.2 1516,232.5C 1509.74,231.188 1503.24,230.522 1496.5,230.5C 1490.17,230.667 1483.83,230.833 1477.5,231C 1472.82,237.834 1470.66,245.334 1471,253.5C 1471.5,255.333 1472.67,256.5 1474.5,257C 1477.79,257.826 1481.13,258.326 1484.5,258.5C 1484.5,259.833 1484.5,261.167 1484.5,262.5C 1472.17,262.5 1459.83,262.5 1447.5,262.5C 1447.24,261.022 1447.57,259.689 1448.5,258.5C 1452.91,257.543 1456.41,255.21 1459,251.5C 1475.06,217.382 1490.56,183.049 1505.5,148.5 Z M 1495.5,187.5 C 1501.2,198.896 1506.53,210.563 1511.5,222.5C 1501.18,223.666 1490.85,223.832 1480.5,223C 1486.2,211.438 1491.2,199.605 1495.5,187.5 Z"/></g>
<g><path style="opacity:0.921" fill="#006da5" d="M 1298.5,149.5 C 1313.47,148.962 1322.97,155.962 1327,170.5C 1329.07,179.04 1331.74,187.373 1335,195.5C 1339.46,200.326 1344.96,202.159 1351.5,201C 1350.68,187.575 1350.18,174.075 1350,160.5C 1349.17,158.333 1347.67,156.833 1345.5,156C 1342.17,155.39 1338.84,154.89 1335.5,154.5C 1335.5,153.167 1335.5,151.833 1335.5,150.5C 1354.5,150.5 1373.5,150.5 1392.5,150.5C 1392.5,151.833 1392.5,153.167 1392.5,154.5C 1387.54,154.513 1383.04,155.847 1379,158.5C 1378.67,159.5 1378.33,160.5 1378,161.5C 1377.5,174.829 1377.33,188.163 1377.5,201.5C 1387.28,202.871 1393.44,198.871 1396,189.5C 1398.05,180.636 1400.72,171.97 1404,163.5C 1411.98,150.043 1423.15,146.543 1437.5,153C 1443.53,158.424 1445.03,164.924 1442,172.5C 1435.1,179.506 1428.77,179.173 1423,171.5C 1420.34,158.525 1416.01,158.192 1410,170.5C 1407.31,179.939 1404.31,189.273 1401,198.5C 1399.86,200.609 1398.36,202.442 1396.5,204C 1401.93,205.802 1406.43,208.969 1410,213.5C 1417.67,227.167 1425.33,240.833 1433,254.5C 1436.29,257.32 1440.12,258.653 1444.5,258.5C 1444.5,259.833 1444.5,261.167 1444.5,262.5C 1432.48,262.832 1420.48,262.499 1408.5,261.5C 1400.74,244.15 1392.08,227.316 1382.5,211C 1380.87,210.506 1379.2,210.34 1377.5,210.5C 1377.33,224.837 1377.5,239.171 1378,253.5C 1381.84,257.836 1386.67,259.503 1392.5,258.5C 1392.5,259.833 1392.5,261.167 1392.5,262.5C 1373.5,262.5 1354.5,262.5 1335.5,262.5C 1335.5,261.167 1335.5,259.833 1335.5,258.5C 1339.27,258.737 1342.94,258.237 1346.5,257C 1348.33,256.5 1349.5,255.333 1350,253.5C 1350.5,239.171 1350.67,224.837 1350.5,210.5C 1346.32,209.846 1343.48,211.512 1342,215.5C 1334.77,230.956 1327.27,246.289 1319.5,261.5C 1307.52,262.499 1295.52,262.832 1283.5,262.5C 1283.5,261.167 1283.5,259.833 1283.5,258.5C 1288.61,259.077 1292.78,257.41 1296,253.5C 1303,240.833 1310,228.167 1317,215.5C 1320.45,209.389 1325.62,205.556 1332.5,204C 1329.57,201.736 1327.4,198.902 1326,195.5C 1323.33,186.833 1320.67,178.167 1318,169.5C 1312.39,158.55 1308.39,158.883 1306,170.5C 1300.82,178.468 1294.48,179.468 1287,173.5C 1282.09,161.254 1285.93,153.254 1298.5,149.5 Z"/></g>
<g><path style="opacity:0.936" fill="#006da5" d="M 1926.5,149.5 C 1937.69,147.835 1945.19,152.169 1949,162.5C 1950.37,169.798 1947.53,174.632 1940.5,177C 1934.58,178.038 1930.42,175.871 1928,170.5C 1927.61,167.367 1926.77,164.367 1925.5,161.5C 1923.78,160.339 1922.11,160.505 1920.5,162C 1918.29,164.921 1916.45,168.088 1915,171.5C 1912.68,182.961 1908.52,193.628 1902.5,203.5C 1906.76,205.547 1910.59,208.214 1914,211.5C 1921.67,225.167 1929.33,238.833 1937,252.5C 1940.5,256.722 1945,258.722 1950.5,258.5C 1950.5,270.5 1950.5,282.5 1950.5,294.5C 1949.17,294.5 1947.83,294.5 1946.5,294.5C 1943.58,274.413 1932.08,263.413 1912,261.5C 1903.59,245.008 1894.92,228.675 1886,212.5C 1883.41,210.804 1880.58,209.804 1877.5,209.5C 1877.07,224.225 1877.57,238.892 1879,253.5C 1879.5,255.333 1880.67,256.5 1882.5,257C 1886.06,258.237 1889.73,258.737 1893.5,258.5C 1893.5,259.833 1893.5,261.167 1893.5,262.5C 1873.83,262.5 1854.17,262.5 1834.5,262.5C 1834.5,261.167 1834.5,259.833 1834.5,258.5C 1840.28,259.19 1845.12,257.523 1849,253.5C 1850.12,238.037 1850.62,222.537 1850.5,207C 1850.61,191.134 1850.11,175.3 1849,159.5C 1848.17,158 1847,156.833 1845.5,156C 1841.89,155.064 1838.22,154.564 1834.5,154.5C 1834.5,153.167 1834.5,151.833 1834.5,150.5C 1854.17,150.5 1873.83,150.5 1893.5,150.5C 1893.5,151.833 1893.5,153.167 1893.5,154.5C 1889.78,154.564 1886.11,155.064 1882.5,156C 1880.95,157.214 1879.78,158.714 1879,160.5C 1877.57,174.107 1877.07,187.774 1877.5,201.5C 1885.07,202.534 1891.9,200.868 1898,196.5C 1902,185.178 1906,173.845 1910,162.5C 1913.94,156.041 1919.44,151.708 1926.5,149.5 Z"/></g>
<g><path style="opacity:0.921" fill="#006da5" d="M 914.5,150.5 C 948.167,150.5 981.833,150.5 1015.5,150.5C 1015.5,161.167 1015.5,171.833 1015.5,182.5C 1013.86,182.714 1012.36,182.38 1011,181.5C 1007.77,163.131 996.933,155.464 978.5,158.5C 978.333,189.168 978.5,219.835 979,250.5C 979.352,254.521 981.518,257.021 985.5,258C 988.482,258.498 991.482,258.665 994.5,258.5C 994.5,259.833 994.5,261.167 994.5,262.5C 974.833,262.5 955.167,262.5 935.5,262.5C 935.5,261.167 935.5,259.833 935.5,258.5C 940.121,259.007 944.454,258.174 948.5,256C 950.02,253.404 950.853,250.571 951,247.5C 951.5,217.835 951.667,188.169 951.5,158.5C 932.966,155.503 922.133,163.169 919,181.5C 917.667,182.833 916.333,182.833 915,181.5C 914.5,171.172 914.334,160.839 914.5,150.5 Z"/></g>
<g><path style="opacity:0.915" fill="#006da5" d="M 1118.5,150.5 C 1137.17,150.5 1155.83,150.5 1174.5,150.5C 1174.5,151.833 1174.5,153.167 1174.5,154.5C 1171.04,154.531 1167.71,155.198 1164.5,156.5C 1163.36,158.421 1163.19,160.421 1164,162.5C 1173.33,179.167 1182.67,195.833 1192,212.5C 1201.39,195.887 1209.56,178.721 1216.5,161C 1216.3,158.463 1214.97,156.796 1212.5,156C 1208.81,155.58 1205.14,155.08 1201.5,154.5C 1201.5,153.167 1201.5,151.833 1201.5,150.5C 1214.17,150.5 1226.83,150.5 1239.5,150.5C 1239.76,151.978 1239.43,153.311 1238.5,154.5C 1231.73,156.103 1226.89,160.103 1224,166.5C 1209.26,195.657 1194.26,224.657 1179,253.5C 1171.23,263.867 1161.06,267.034 1148.5,263C 1140.21,258.251 1137.71,251.418 1141,242.5C 1146.78,236.335 1152.78,236.002 1159,241.5C 1160,245.167 1161,248.833 1162,252.5C 1164.28,254.984 1166.78,255.151 1169.5,253C 1174,249.492 1176.5,244.992 1177,239.5C 1163,214.167 1149,188.833 1135,163.5C 1131.47,157.823 1126.3,154.823 1119.5,154.5C 1118.57,153.311 1118.24,151.978 1118.5,150.5 Z"/></g>
<g><path style="opacity:0.927" fill="#006da5" d="M 1570.5,150.5 C 1591.86,150.11 1613.2,150.61 1634.5,152C 1655.67,155.208 1665.17,167.375 1663,188.5C 1658.89,200.279 1650.72,207.446 1638.5,210C 1629.85,211.091 1621.18,211.925 1612.5,212.5C 1612.33,226.171 1612.5,239.837 1613,253.5C 1613.5,255.333 1614.67,256.5 1616.5,257C 1620.06,258.237 1623.73,258.737 1627.5,258.5C 1627.5,259.833 1627.5,261.167 1627.5,262.5C 1608.5,262.5 1589.5,262.5 1570.5,262.5C 1570.5,261.167 1570.5,259.833 1570.5,258.5C 1574.25,258.608 1577.91,258.108 1581.5,257C 1583.05,255.786 1584.22,254.286 1585,252.5C 1585.67,221.833 1585.67,191.167 1585,160.5C 1584.17,158.333 1582.67,156.833 1580.5,156C 1577.21,155.174 1573.87,154.674 1570.5,154.5C 1570.5,153.167 1570.5,151.833 1570.5,150.5 Z M 1612.5,158.5 C 1629.1,157.099 1636.77,164.766 1635.5,181.5C 1636.08,197.586 1628.41,205.253 1612.5,204.5C 1612.5,189.167 1612.5,173.833 1612.5,158.5 Z"/></g>
<g><path style="opacity:0.928" fill="#006da5" d="M 1671.5,150.5 C 1690.83,150.5 1710.17,150.5 1729.5,150.5C 1729.5,151.833 1729.5,153.167 1729.5,154.5C 1724.54,154.513 1720.04,155.847 1716,158.5C 1714.57,172.441 1714.07,186.441 1714.5,200.5C 1726.26,200.115 1737.93,200.949 1749.5,203C 1769.86,208.896 1777.36,222.062 1772,242.5C 1765.33,254.932 1754.83,261.432 1740.5,262C 1717.17,262.5 1693.84,262.667 1670.5,262.5C 1670.5,261.167 1670.5,259.833 1670.5,258.5C 1675.62,258.709 1680.46,257.709 1685,255.5C 1685.33,254.5 1685.67,253.5 1686,252.5C 1686.67,221.833 1686.67,191.167 1686,160.5C 1685.89,158.152 1684.72,156.652 1682.5,156C 1678.83,155.452 1675.16,154.952 1671.5,154.5C 1671.5,153.167 1671.5,151.833 1671.5,150.5 Z M 1714.5,209.5 C 1736.29,209.135 1745.46,219.802 1742,241.5C 1738.61,252.78 1731.11,257.28 1719.5,255C 1717.67,254.5 1716.5,253.333 1716,251.5C 1714.57,237.559 1714.07,223.559 1714.5,209.5 Z"/></g>
<g><path style="opacity:0.944" fill="#006da5" d="M 1770.5,150.5 C 1790.17,150.5 1809.83,150.5 1829.5,150.5C 1829.5,151.833 1829.5,153.167 1829.5,154.5C 1825.75,154.392 1822.09,154.892 1818.5,156C 1816.67,156.5 1815.5,157.667 1815,159.5C 1813.89,175.3 1813.39,191.134 1813.5,207C 1813.39,222.866 1813.89,238.7 1815,254.5C 1819.17,258.027 1824,259.36 1829.5,258.5C 1829.5,259.833 1829.5,261.167 1829.5,262.5C 1809.83,262.5 1790.17,262.5 1770.5,262.5C 1770.5,261.167 1770.5,259.833 1770.5,258.5C 1776.04,259.362 1780.87,258.028 1785,254.5C 1786.13,238.543 1786.63,222.543 1786.5,206.5C 1786.63,190.457 1786.13,174.457 1785,158.5C 1780.72,155.386 1775.88,154.053 1770.5,154.5C 1770.5,153.167 1770.5,151.833 1770.5,150.5 Z"/></g>
<g><path style="opacity:0.984" fill="#06a357" d="M 389.5,202.5 C 429.172,202.167 468.839,202.5 508.5,203.5C 533.82,255.878 540.32,310.545 528,367.5C 510.701,436.305 471.868,489.138 411.5,526C 338.796,566.224 264.13,570.224 187.5,538C 183.34,536.088 179.34,533.921 175.5,531.5C 210.27,511.908 244.936,492.075 279.5,472C 349.999,472.098 401.166,440.932 433,378.5C 449.436,338.675 450.769,298.342 437,257.5C 416.333,278.167 395.667,298.833 375,319.5C 374.828,344.406 374.328,369.239 373.5,394C 271.337,452.247 169.337,510.747 67.5,569.5C 66.2888,568.726 66.2888,567.893 67.5,567C 146.633,495.536 225.466,423.702 304,351.5C 304.333,330.5 304.667,309.5 305,288.5C 333.007,259.66 361.173,230.993 389.5,202.5 Z"/></g>
<g><path style="opacity:0.92" fill="#006da5" d="M 1191.5,348.5 C 1193.91,348.137 1195.41,349.137 1196,351.5C 1210,383.5 1224,415.5 1238,447.5C 1240.3,453.969 1244.8,457.636 1251.5,458.5C 1251.5,459.833 1251.5,461.167 1251.5,462.5C 1233.5,462.5 1215.5,462.5 1197.5,462.5C 1197.5,461.167 1197.5,459.833 1197.5,458.5C 1200.94,458.699 1204.27,458.199 1207.5,457C 1209.22,456.225 1210.22,454.892 1210.5,453C 1207.81,445.777 1204.97,438.611 1202,431.5C 1189.24,430.345 1176.41,430.178 1163.5,431C 1160.05,436.905 1157.72,443.238 1156.5,450C 1156.7,453.401 1158.36,455.734 1161.5,457C 1164.83,457.61 1168.16,458.11 1171.5,458.5C 1171.5,459.833 1171.5,461.167 1171.5,462.5C 1158.83,462.5 1146.17,462.5 1133.5,462.5C 1133.24,461.022 1133.57,459.689 1134.5,458.5C 1139.28,457.227 1143.11,454.561 1146,450.5C 1162.01,416.822 1177.17,382.822 1191.5,348.5 Z M 1182.5,387.5 C 1187.65,399.318 1192.99,411.151 1198.5,423C 1187.83,423.667 1177.17,423.667 1166.5,423C 1172.51,411.453 1177.85,399.62 1182.5,387.5 Z"/></g>
<g><path style="opacity:0.931" fill="#006da5" d="M 1690.5,348.5 C 1705.34,347.768 1719.5,350.434 1733,356.5C 1737.19,355.481 1739.35,352.814 1739.5,348.5C 1740.83,348.5 1742.17,348.5 1743.5,348.5C 1743.5,361.5 1743.5,374.5 1743.5,387.5C 1742.17,387.5 1740.83,387.5 1739.5,387.5C 1735.04,367.103 1722.37,356.936 1701.5,357C 1686.54,359.565 1676.7,368.065 1672,382.5C 1666.23,403.937 1668.23,424.604 1678,444.5C 1689.38,456.18 1702.88,459.347 1718.5,454C 1721.17,452.667 1723.83,451.333 1726.5,450C 1731.65,445.685 1736.65,441.185 1741.5,436.5C 1742.66,439.784 1742.82,443.118 1742,446.5C 1725.36,462.954 1705.53,468.454 1682.5,463C 1654.38,455.712 1639.71,437.545 1638.5,408.5C 1641.24,375.766 1658.57,355.766 1690.5,348.5 Z"/></g>
<g><path style="opacity:0.936" fill="#006da5" d="M 694.5,349.5 C 707.19,347.883 714.857,353.217 717.5,365.5C 715.595,375.118 709.929,378.618 700.5,376C 698.185,374.891 696.685,373.057 696,370.5C 694.135,357.91 690.135,357.243 684,368.5C 681.198,377.906 678.198,387.239 675,396.5C 674.117,399.102 672.617,401.269 670.5,403C 674.956,404.979 678.79,407.813 682,411.5C 689.667,425.167 697.333,438.833 705,452.5C 708.503,456.672 713.003,458.672 718.5,458.5C 718.5,459.833 718.5,461.167 718.5,462.5C 705.829,462.667 693.162,462.5 680.5,462C 671.674,444.679 662.341,427.679 652.5,411C 650.26,410.023 647.927,409.523 645.5,409.5C 645.084,424.55 645.584,439.55 647,454.5C 651.283,457.614 656.117,458.947 661.5,458.5C 661.5,459.833 661.5,461.167 661.5,462.5C 641.833,462.5 622.167,462.5 602.5,462.5C 602.5,461.167 602.5,459.833 602.5,458.5C 606.979,458.464 611.312,457.631 615.5,456C 616.126,455.25 616.626,454.416 617,453.5C 618.117,438.037 618.617,422.537 618.5,407C 618.609,391.134 618.109,375.3 617,359.5C 616.5,357.667 615.333,356.5 613.5,356C 609.914,354.892 606.247,354.392 602.5,354.5C 602.5,353.167 602.5,351.833 602.5,350.5C 622.167,350.5 641.833,350.5 661.5,350.5C 661.5,351.833 661.5,353.167 661.5,354.5C 657.78,354.564 654.114,355.064 650.5,356C 648.667,356.5 647.5,357.667 647,359.5C 645.591,373.449 645.091,387.449 645.5,401.5C 650.859,401.33 656.192,400.83 661.5,400C 663.286,399.215 664.786,398.049 666,396.5C 670.133,384.435 674.466,372.435 679,360.5C 682.962,355.023 688.129,351.356 694.5,349.5 Z"/></g>
<g><path style="opacity:0.944" fill="#006da5" d="M 770.5,349.5 C 798.124,345.629 819.29,355.295 834,378.5C 845.302,404.686 841.469,428.353 822.5,449.5C 807.541,462.409 790.208,467.243 770.5,464C 744.027,458.86 728.194,443.027 723,416.5C 719.481,387.03 730.981,365.863 757.5,353C 761.919,351.648 766.252,350.481 770.5,349.5 Z M 780.5,355.5 C 796.813,357.648 805.98,366.981 808,383.5C 810,398.833 810,414.167 808,429.5C 806.723,439.564 802.223,447.73 794.5,454C 772.466,461.555 759.3,453.721 755,430.5C 751.705,414.506 751.705,398.506 755,382.5C 757.35,367.324 765.85,358.324 780.5,355.5 Z"/></g>
<g><path style="opacity:0.92" fill="#006da5" d="M 848.5,350.5 C 863.848,350.167 879.181,350.501 894.5,351.5C 904.764,375.126 914.931,398.792 925,422.5C 934.931,398.874 944.764,375.207 954.5,351.5C 969.819,350.501 985.152,350.167 1000.5,350.5C 1000.5,351.833 1000.5,353.167 1000.5,354.5C 996.753,354.392 993.086,354.892 989.5,356C 987.667,356.5 986.5,357.667 986,359.5C 985.333,390.833 985.333,422.167 986,453.5C 986.5,455.333 987.667,456.5 989.5,457C 993.06,458.237 996.727,458.737 1000.5,458.5C 1000.5,459.833 1000.5,461.167 1000.5,462.5C 980.833,462.5 961.167,462.5 941.5,462.5C 941.5,461.167 941.5,459.833 941.5,458.5C 946.08,458.887 950.414,458.053 954.5,456C 956.004,454.509 956.837,452.676 957,450.5C 957.667,421.833 957.667,393.167 957,364.5C 943.501,397.486 929.501,430.153 915,462.5C 913.347,462.18 912.347,461.18 912,459.5C 898.667,428.167 885.333,396.833 872,365.5C 871.333,393.833 871.333,422.167 872,450.5C 875.324,456.414 880.49,459.081 887.5,458.5C 887.5,459.833 887.5,461.167 887.5,462.5C 874.5,462.5 861.5,462.5 848.5,462.5C 848.5,461.167 848.5,459.833 848.5,458.5C 854.848,459.116 859.682,456.782 863,451.5C 864.125,436.543 864.625,421.543 864.5,406.5C 864.608,390.8 864.108,375.133 863,359.5C 859.116,355.477 854.283,353.81 848.5,354.5C 848.5,353.167 848.5,351.833 848.5,350.5 Z"/></g>
<g><path style="opacity:0.933" fill="#006da5" d="M 1005.5,350.5 C 1046.83,350.5 1088.17,350.5 1129.5,350.5C 1129.5,351.833 1129.5,353.167 1129.5,354.5C 1124.34,353.911 1119.84,355.245 1116,358.5C 1114.86,374.616 1114.36,390.783 1114.5,407C 1114.67,421.833 1114.83,436.667 1115,451.5C 1115.29,453.931 1116.46,455.764 1118.5,457C 1122.09,458.108 1125.75,458.608 1129.5,458.5C 1129.5,459.833 1129.5,461.167 1129.5,462.5C 1110.17,462.5 1090.83,462.5 1071.5,462.5C 1071.5,461.167 1071.5,459.833 1071.5,458.5C 1076.36,458.999 1080.86,457.999 1085,455.5C 1085.33,454.167 1085.67,452.833 1086,451.5C 1086.5,420.835 1086.67,390.168 1086.5,359.5C 1073.83,359.5 1061.17,359.5 1048.5,359.5C 1048.07,390.86 1048.57,422.193 1050,453.5C 1050.47,454.931 1051.3,456.097 1052.5,457C 1056.42,458.156 1060.42,458.656 1064.5,458.5C 1064.5,459.833 1064.5,461.167 1064.5,462.5C 1044.83,462.5 1025.17,462.5 1005.5,462.5C 1005.5,461.167 1005.5,459.833 1005.5,458.5C 1011.04,459.362 1015.87,458.028 1020,454.5C 1021.13,438.709 1021.63,422.876 1021.5,407C 1021.62,390.796 1021.12,374.63 1020,358.5C 1015.83,355.112 1011,353.779 1005.5,354.5C 1005.5,353.167 1005.5,351.833 1005.5,350.5 Z"/></g>
<g><path style="opacity:0.921" fill="#006da5" d="M 1256.5,350.5 C 1275.83,350.5 1295.17,350.5 1314.5,350.5C 1314.5,351.833 1314.5,353.167 1314.5,354.5C 1310.75,354.392 1307.09,354.892 1303.5,356C 1301.95,357.214 1300.78,358.714 1300,360.5C 1299.5,373.829 1299.33,387.163 1299.5,400.5C 1312.17,400.667 1324.84,400.5 1337.5,400C 1336.68,386.575 1336.18,373.075 1336,359.5C 1332.12,355.477 1327.28,353.81 1321.5,354.5C 1321.5,353.167 1321.5,351.833 1321.5,350.5C 1341.17,350.5 1360.83,350.5 1380.5,350.5C 1380.5,351.833 1380.5,353.167 1380.5,354.5C 1375.05,353.779 1370.22,355.112 1366,358.5C 1364.86,374.616 1364.36,390.783 1364.5,407C 1364.67,421.833 1364.83,436.667 1365,451.5C 1365.4,454.232 1366.9,456.065 1369.5,457C 1373.06,458.237 1376.73,458.737 1380.5,458.5C 1380.5,459.833 1380.5,461.167 1380.5,462.5C 1360.83,462.5 1341.17,462.5 1321.5,462.5C 1321.5,461.167 1321.5,459.833 1321.5,458.5C 1325.27,458.737 1328.94,458.237 1332.5,457C 1334.33,456.5 1335.5,455.333 1336,453.5C 1336.18,438.925 1336.68,424.425 1337.5,410C 1324.84,409.5 1312.17,409.333 1299.5,409.5C 1299.33,424.17 1299.5,438.837 1300,453.5C 1303.84,457.836 1308.67,459.503 1314.5,458.5C 1314.5,459.833 1314.5,461.167 1314.5,462.5C 1295.16,462.667 1275.83,462.5 1256.5,462C 1255.66,460.989 1255.33,459.822 1255.5,458.5C 1259.6,458.766 1263.6,458.266 1267.5,457C 1269.05,455.786 1270.22,454.286 1271,452.5C 1271.67,421.833 1271.67,391.167 1271,360.5C 1270.17,358.333 1268.67,356.833 1266.5,356C 1262.94,354.763 1259.27,354.263 1255.5,354.5C 1255.43,353.041 1255.77,351.708 1256.5,350.5 Z"/></g>
<g><path style="opacity:0.934" fill="#006da5" d="M 1384.5,350.5 C 1404.5,350.5 1424.5,350.5 1444.5,350.5C 1444.5,351.833 1444.5,353.167 1444.5,354.5C 1440.75,354.392 1437.09,354.892 1433.5,356C 1431.67,356.5 1430.5,357.667 1430,359.5C 1428.39,382.458 1428.05,405.458 1429,428.5C 1441.33,408.833 1453.67,389.167 1466,369.5C 1467.61,357.612 1462.44,352.612 1450.5,354.5C 1450.5,353.167 1450.5,351.833 1450.5,350.5C 1470.5,350.5 1490.5,350.5 1510.5,350.5C 1510.5,351.833 1510.5,353.167 1510.5,354.5C 1505.62,354.193 1500.95,355.026 1496.5,357C 1495.02,360.312 1494.19,363.812 1494,367.5C 1493.07,396.195 1493.4,424.861 1495,453.5C 1497.68,457.07 1501.34,458.737 1506,458.5C 1511.2,458.213 1515.86,456.547 1520,453.5C 1530.5,439 1541,424.5 1551.5,410C 1529.13,402.769 1522.3,388.269 1531,366.5C 1537.14,357.674 1545.64,352.841 1556.5,352C 1580.81,350.619 1605.14,350.119 1629.5,350.5C 1629.5,351.833 1629.5,353.167 1629.5,354.5C 1626.13,354.674 1622.79,355.174 1619.5,356C 1617.33,356.833 1615.83,358.333 1615,360.5C 1614.33,391.167 1614.33,421.833 1615,452.5C 1615.78,454.286 1616.95,455.786 1618.5,457C 1622.09,458.108 1625.75,458.608 1629.5,458.5C 1629.5,459.833 1629.5,461.167 1629.5,462.5C 1610.17,462.5 1590.83,462.5 1571.5,462.5C 1571.5,461.167 1571.5,459.833 1571.5,458.5C 1576.88,458.947 1581.72,457.614 1586,454.5C 1587.41,440.217 1587.91,425.884 1587.5,411.5C 1583.44,410.891 1580.27,412.225 1578,415.5C 1567.29,431.087 1556.46,446.587 1545.5,462C 1513.84,462.5 1482.17,462.667 1450.5,462.5C 1450.5,461.167 1450.5,459.833 1450.5,458.5C 1454.58,458.656 1458.58,458.156 1462.5,457C 1463.7,456.097 1464.53,454.931 1465,453.5C 1466.61,430.542 1466.95,407.542 1466,384.5C 1453.92,404.335 1441.58,424.002 1429,443.5C 1427.36,455.355 1432.52,460.355 1444.5,458.5C 1444.5,459.833 1444.5,461.167 1444.5,462.5C 1424.5,462.5 1404.5,462.5 1384.5,462.5C 1384.5,461.167 1384.5,459.833 1384.5,458.5C 1389.69,459.056 1394.53,458.056 1399,455.5C 1399.33,454.5 1399.67,453.5 1400,452.5C 1400.67,421.5 1400.67,390.5 1400,359.5C 1399.53,358.069 1398.7,356.903 1397.5,356C 1393.23,354.925 1388.9,354.425 1384.5,354.5C 1384.5,353.167 1384.5,351.833 1384.5,350.5 Z M 1577.5,357.5 C 1580.83,357.5 1584.17,357.5 1587.5,357.5C 1587.5,373.167 1587.5,388.833 1587.5,404.5C 1579.66,405.032 1572,404.199 1564.5,402C 1559.85,399.545 1557.02,395.712 1556,390.5C 1553.84,381.801 1554.84,373.467 1559,365.5C 1564.21,360.382 1570.38,357.716 1577.5,357.5 Z"/></g>
<g><path style="opacity:0.929" fill="#006da5" d="M 1755.5,350.5 C 1774.83,350.5 1794.17,350.5 1813.5,350.5C 1813.5,351.833 1813.5,353.167 1813.5,354.5C 1808.51,354.393 1804.01,355.726 1800,358.5C 1798.57,372.441 1798.07,386.441 1798.5,400.5C 1810.27,400.065 1821.93,400.898 1833.5,403C 1853.86,408.896 1861.36,422.062 1856,442.5C 1850.91,452.64 1842.74,458.807 1831.5,461C 1805.86,462.422 1780.2,462.922 1754.5,462.5C 1754.5,461.167 1754.5,459.833 1754.5,458.5C 1759.33,458.625 1764,457.792 1768.5,456C 1769.19,454.933 1769.69,453.766 1770,452.5C 1770.67,421.833 1770.67,391.167 1770,360.5C 1769.89,358.152 1768.72,356.652 1766.5,356C 1762.85,355.281 1759.19,354.781 1755.5,354.5C 1755.5,353.167 1755.5,351.833 1755.5,350.5 Z M 1798.5,409.5 C 1820.26,409.105 1829.43,419.772 1826,441.5C 1822.9,452.469 1815.73,456.969 1804.5,455C 1802.51,454.426 1801.01,453.259 1800,451.5C 1798.57,437.559 1798.07,423.559 1798.5,409.5 Z"/></g>
<g><path style="opacity:0.943" fill="#006da5" d="M 1854.5,350.5 C 1874.17,350.5 1893.83,350.5 1913.5,350.5C 1913.5,351.833 1913.5,353.167 1913.5,354.5C 1909.75,354.392 1906.09,354.892 1902.5,356C 1900.67,356.5 1899.5,357.667 1899,359.5C 1897.89,375.3 1897.39,391.134 1897.5,407C 1897.39,422.866 1897.89,438.7 1899,454.5C 1903.22,457.888 1908.05,459.221 1913.5,458.5C 1913.5,459.833 1913.5,461.167 1913.5,462.5C 1893.83,462.5 1874.17,462.5 1854.5,462.5C 1854.5,461.167 1854.5,459.833 1854.5,458.5C 1859.95,459.221 1864.78,457.888 1869,454.5C 1870.13,438.543 1870.63,422.543 1870.5,406.5C 1870.63,390.457 1870.13,374.457 1869,358.5C 1864.72,355.386 1859.88,354.053 1854.5,354.5C 1854.5,353.167 1854.5,351.833 1854.5,350.5 Z"/></g>
</svg>
